<?xml version="1.0"?>
<svg version="1.2" width="119" height="88" viewBox="0 0 1190 880" xmlns="http://www.w3.org/2000/svg">
 <rect stroke="none" fill="none" x="10" y="10" width="1176" height="638"/>
 <path fill="rgb(0,136,72)" stroke="none" d="M 1184,636 L 988,406 1060,404 C 1084,402 1104,387 1122,369 1180,296 1187,181 1149,97 1128,53 1092,13 1039,10 L 465,10 465,421 464,451 C 462,466 449,477 436,484 363,511 268,516 194,488 176,480 162,465 162,446 L 162,266 10,266 10,476 C 10,487 12,504 12,504 21,564 81,599 133,620 133,620 137,621 155,626 264,654 390,655 497,619 552,597 615,551 614,484 L 614,150 982,150 C 996,150 1008,159 1015,170 1027,193 1026,224 1016,246 1011,256 1000,266 986,266 L 697,266 C 715,291 985,636 985,636 L 1184,636 Z"/>
 <rect stroke="none" fill="none" x="855" y="702" width="171" height="173"/>
 <path fill="rgb(0,136,72)" stroke="none" d="M 1025,824 C 1016,819 1010,811 1003,803 994,788 982,772 981,753 L 1025,753 1025,728 953,728 953,702 927,702 927,728 855,728 855,754 901,754 C 896,782 879,808 855,825 L 855,857 C 889,835 917,803 927,762 L 927,823 899,823 899,847 927,847 927,874 953,874 953,847 982,847 982,823 953,823 953,761 C 960,788 975,810 993,829 1003,839 1013,850 1025,855 L 1025,824 Z"/>
 <rect stroke="none" fill="none" x="163" y="708" width="142" height="163"/>
 <path fill="rgb(0,136,72)" stroke="none" d="M 274,815 L 274,708 304,708 304,826 C 304,840 293,860 276,865 252,872 227,870 202,868 188,866 175,858 169,847 164,838 163,829 163,820 L 163,794 194,794 194,811 C 194,822 194,832 204,836 216,841 242,841 260,837 265,835 270,831 272,826 272,826 274,822 274,815 Z"/>
 <rect stroke="none" fill="none" x="325" y="708" width="152" height="162"/>
 <path fill="rgb(0,136,72)" stroke="none" d="M 433,737 L 356,737 356,778 426,778 C 433,778 438,777 442,772 445,766 448,748 439,739 439,739 435,737 433,737 Z M 444,869 L 444,842 C 444,833 444,823 443,815 442,810 438,809 434,808 L 356,807 356,869 325,869 325,708 438,708 C 450,709 463,715 470,726 477,740 476,764 472,778 470,784 465,788 461,792 476,798 475,815 475,828 L 475,869 444,869 Z"/>
 <rect stroke="none" fill="none" x="494" y="703" width="175" height="170"/>
 <path fill="rgb(0,136,72)" stroke="none" d="M 634,801 L 634,794 593,794 593,801 634,801 Z M 634,773 L 634,765 593,765 593,773 634,773 Z M 567,801 L 567,794 527,794 527,801 567,801 Z M 567,773 L 567,765 527,765 527,773 567,773 Z M 593,872 L 567,872 567,826 C 548,848 523,866 494,870 L 494,846 C 507,842 521,836 532,823 L 500,823 500,745 567,745 567,738 494,738 494,715 567,715 567,703 593,703 593,715 668,715 668,738 593,738 593,745 661,745 661,823 629,823 C 638,834 653,841 668,845 L 668,869 C 639,866 611,848 593,826 L 593,872 Z"/>
 <rect stroke="none" fill="none" x="688" y="712" width="148" height="161"/>
 <path fill="rgb(0,136,72)" stroke="none" d="M 805,846 L 805,802 719,802 719,846 805,846 Z M 805,777 L 805,736 719,736 719,777 805,777 Z M 688,872 L 688,712 835,712 835,872 688,872 Z"/>
</svg>