<?xml version="1.0" encoding="utf-8"?>
<!-- Generator: Adobe Illustrator 15.0.2, SVG Export Plug-In . SVG Version: 6.00 Build 0)  -->
<!DOCTYPE svg PUBLIC "-//W3C//DTD SVG 1.1//EN" "http://www.w3.org/Graphics/SVG/1.1/DTD/svg11.dtd">
<svg version="1.1" id="レイヤー_1" xmlns="http://www.w3.org/2000/svg" xmlns:xlink="http://www.w3.org/1999/xlink" x="0px"
	 y="0px" width="1295.382px" height="1277.361px" viewBox="0 0 1295.382 1277.361" enable-background="new 0 0 1295.382 1277.361"
	 xml:space="preserve">
<g>
	<g>
		<path fill="#404848" d="M19.972,1208.886h6.131c0.037,9.269,0.461,17.757,1.225,25.448c7.92-2.34,16.551-4.236,25.873-5.69
			l0.161,5.761c-11.98,1.453-22.348,3.828-31.104,7.142c-11.003,4.165-16.534,9.517-16.534,15.967c0,4.536,2.091,7.693,6.327,9.499
			c3.915,1.613,9.852,2.411,17.808,2.411c8.331,0,17.404-0.673,27.187-2.02v5.778c-9.676,0.974-18.609,1.47-26.671,1.47
			c-20.274,0-30.375-5.688-30.375-17.137c0-8.594,7.354-15.737,22.134-21.496C21.355,1230.204,20.626,1221.167,19.972,1208.886"/>
		<path fill="#404848" d="M101.494,1223.771l-0.498-5.051l4.909-0.158c8.844-0.213,15.259-0.444,19.264-0.675
			c-0.779-2.285-1.914-5.529-3.418-9.711l5.687-0.851c0.443,1.561,1.613,4.998,3.438,10.315c3.97-0.106,10.349-0.425,19.175-0.939
			l4.272-0.23l0.3,4.997c-2.586,0.143-8.754,0.355-18.484,0.673l-3.667,0.106c0.709,1.56,1.56,3.528,2.482,5.955
			c0.709,1.594,1.38,3.224,2.126,4.837c5.831-0.301,11.766-0.584,17.737-0.938l4.202-0.32l0.212,5.193
			c-7.621,0.266-14.318,0.478-20.061,0.584c3.97,8.223,7.39,14.283,10.296,18.253l-4.626,3.101
			c-7.833-4.058-15.984-6.114-24.492-6.114c-9.497,0-14.247,2.8-14.247,8.381c0,6.807,7.46,10.225,22.399,10.225
			c5.352,0,12.104-0.673,20.22-2.02v5.778c-9.02,0.921-15.399,1.383-19.191,1.383c-19.158,0-28.745-5.212-28.745-15.579
			c0-4.252,2.091-7.549,6.273-9.906c3.543-1.949,8.08-2.906,13.645-2.906c8.294,0,15.206,1.559,20.718,4.643
			c-3.298-5.6-5.919-10.561-7.851-14.886c-2.747,0.106-7.055,0.248-12.901,0.479l-9.959,0.406c-6.432,0.249-10.9,0.407-13.397,0.515
			l-0.248-5.086c2.337-0.071,6.415-0.124,12.192-0.178c11.802-0.46,19.192-0.761,22.205-0.922
			c-1.506-3.294-3.012-6.804-4.518-10.543c-2.553,0.035-6.737,0.266-12.476,0.585
			C108.476,1223.434,104.17,1223.628,101.494,1223.771"/>
		<path fill="#404848" d="M232.423,1224.905c-3.154,10.846-6.591,20.062-10.403,27.716c-3.614-8.435-6.556-16.125-8.841-23.109
			C218.744,1226.27,225.157,1224.747,232.423,1224.905 M206.798,1227.76c-8.063,6.538-12.085,14.69-12.085,24.456
			c0,5.918,1.346,10.756,4.005,14.513c2.552,3.634,5.832,5.423,9.783,5.423c4.679,0,9.764-4.146,15.222-12.475
			c5.246-7.941,9.978-19.248,14.23-34.009c11.094,3.279,16.623,10.616,16.623,22.012c0,7.708-2.73,13.36-8.205,16.994
			c-3.988,2.676-10.936,4.077-20.824,4.183l2.003,5.529c21.833-0.549,32.767-9.215,32.767-25.963
			c0-14.158-7.017-23.409-21.035-27.697c1.01-4.235,1.7-7.338,2.108-9.305l-5.882-1.08c-0.248,2.409-0.852,5.617-1.737,9.64
			c-1.347-0.106-2.338-0.142-3.014-0.142c-6.485,0-12.865,1.737-19.103,5.158c-0.992-2.959-2.286-7.071-3.844-12.3l-5.354,1.826
			C203.838,1219.093,205.309,1223.506,206.798,1227.76z M208.269,1266.765c-2.463,0-4.431-1.347-5.919-4.042
			c-1.683-3.03-2.499-6.752-2.499-11.164c0-7.036,2.942-13.273,8.79-18.715c3.12,8.046,6.451,16.252,9.959,24.616
			C214.33,1263.68,210.856,1266.765,208.269,1266.765z"/>
		<path fill="#404848" d="M300.477,1223.771l-0.514-5.051l4.944-0.158c8.825-0.213,15.241-0.444,19.248-0.675
			c-0.799-2.285-1.95-5.529-3.421-9.711l5.689-0.851c0.459,1.561,1.594,4.998,3.437,10.315c3.952-0.106,10.348-0.425,19.157-0.939
			l4.288-0.23l0.32,4.997c-2.605,0.143-8.772,0.355-18.483,0.673l-3.688,0.106c0.709,1.56,1.542,3.528,2.482,5.955
			c0.692,1.594,1.381,3.224,2.11,4.837c5.865-0.301,11.782-0.584,17.774-0.938l4.182-0.32l0.248,5.193
			c-7.673,0.266-14.354,0.478-20.097,0.584c3.968,8.223,7.409,14.283,10.279,18.253l-4.608,3.101
			c-7.815-4.058-16.003-6.114-24.474-6.114c-9.516,0-14.247,2.8-14.247,8.381c0,6.807,7.442,10.225,22.382,10.225
			c5.353,0,12.087-0.673,20.204-2.02v5.778c-9.003,0.921-15.383,1.383-19.176,1.383c-19.174,0-28.745-5.212-28.745-15.579
			c0-4.252,2.074-7.549,6.274-9.906c3.508-1.949,8.081-2.906,13.646-2.906c8.294,0,15.205,1.559,20.715,4.643
			c-3.276-5.6-5.917-10.561-7.885-14.886c-2.711,0.106-7.035,0.248-12.867,0.479l-9.976,0.406
			c-6.398,0.249-10.899,0.407-13.379,0.515l-0.268-5.086c2.34-0.071,6.399-0.124,12.229-0.178
			c11.784-0.46,19.158-0.761,22.168-0.922c-1.523-3.294-3.011-6.804-4.499-10.543c-2.571,0.035-6.737,0.266-12.479,0.585
			C307.479,1223.434,303.135,1223.628,300.477,1223.771"/>
		<path fill="#404848" d="M420.244,1208.886h6.129c0.036,9.269,0.462,17.757,1.241,25.448c7.922-2.34,16.535-4.236,25.874-5.69
			l0.161,5.761c-11.98,1.453-22.329,3.828-31.103,7.142c-11.041,4.165-16.551,9.517-16.551,15.967c0,4.536,2.126,7.693,6.361,9.499
			c3.882,1.613,9.818,2.411,17.828,2.411c8.276,0,17.315-0.673,27.168-2.02v5.778c-9.711,0.974-18.591,1.47-26.688,1.47
			c-20.273,0-30.393-5.688-30.393-17.137c0-8.594,7.392-15.737,22.171-21.496C421.66,1230.204,420.915,1221.167,420.244,1208.886"/>
		<path fill="#404848" d="M528.774,1210.444l5.493-1.736c2.322,7.302,4.057,13.098,5.37,17.403
			c4.873-1.223,10.261-2.483,16.179-3.758c-1.238-2.958-3.011-6.733-5.315-11.341l5.103-1.4l0.849,1.861
			c2.235,4.537,3.812,7.832,4.678,9.959c4.469-0.602,7.729-0.886,9.713-0.886c4.645,0,8.579,1.33,11.733,3.934
			c4.183,3.474,6.292,8.153,6.292,14.019c0,6.292-2.412,11.306-7.213,14.993c-3.685,2.853-9.446,4.271-17.332,4.271
			c-1.665,0-3.901-0.072-6.682-0.143l-1.188-6.061c4.112,0.249,7.021,0.389,8.706,0.389c12.064,0,18.093-4.447,18.093-13.379
			c0-4.128-1.311-7.319-3.935-9.587c-2.409-2.127-5.6-3.207-9.64-3.207c-1.63,0-3.865,0.159-6.503,0.495
			c2.567,6.434,4.429,11.786,5.618,16.092l-5.867,1.826c-1.755-7.142-3.492-12.866-5.21-17.155
			c-5.283,1.17-10.827,2.588-16.553,4.182c5.175,18.538,8.843,33.316,11.042,44.358l-6.026,1.79
			c-2.444-15.205-5.869-30.091-10.225-44.623c-2.854,0.813-7.425,2.269-13.717,4.253l-2.96,0.993l-1.843-5.424
			c4.821-1.577,10.421-3.278,16.942-5.104C533.274,1223.7,531.396,1218.047,528.774,1210.444"/>
		<path fill="#404848" d="M626.137,1224.304l10.155-0.194l12.14-0.09l8.47-0.178v9.145c-2.639-1.561-5.812-2.34-9.355-2.34
			c-4.042,0-7.533,1.276-10.473,3.757c-2.994,2.517-4.486,5.777-4.486,9.711c0,3.013,0.96,5.708,2.803,8.047
			c2.517,3.295,6.236,4.925,11.022,4.925c9.04,0,13.947-3.829,14.833-11.554c0.477,1.453,0.727,2.907,0.727,4.343
			c0,7.211-2.693,12.617-8.046,16.18c-4.538,3.048-12.088,4.642-22.615,4.784l2.268,5.582c22.4-0.549,33.602-8.914,33.602-25.022
			c0-5.423-1.649-10.403-4.927-14.903v-12.726c3.014-0.07,7.426-0.143,13.312-0.247c5.916-0.071,9.956-0.09,12.138-0.09v-5.44
			c-2.872,0.124-6.965,0.248-12.302,0.425c-6.237,0.106-10.632,0.213-13.148,0.32v-10.617h-5.812v10.704
			c-5.814,0.124-14.816,0.195-27.029,0.195c-1.254,0-4.199-0.035-8.909-0.123v5.406H626.137 M657.896,1242.981
			c0,2.181-0.886,4.183-2.676,6.044c-2.232,2.286-4.945,3.42-8.098,3.42c-2.695,0-4.928-0.78-6.701-2.339
			c-1.79-1.525-2.657-3.544-2.657-6.096c0-3.048,1.241-5.354,3.827-6.965c1.914-1.224,4.183-1.862,6.771-1.862
			C654.704,1235.184,657.896,1237.789,657.896,1242.981z"/>
		<path fill="#404848" d="M731.428,1215.886l1.858-5.335c12.246,0.71,24.03,2.445,35.339,5.175l-2.413,5.37
			C756.467,1218.632,744.913,1216.896,731.428,1215.886 M728.943,1222.282l5.443,0.319c-0.924,13.823-1.722,23.073-2.342,27.716
			c8.456-10.527,18.342-15.79,29.613-15.79c5.83,0,10.566,1.702,14.231,5.121c4.074,3.722,6.112,8.33,6.112,13.806
			c0,11.962-7.814,18.997-23.354,21.124c-4.06,0.514-11.926,0.78-23.571,0.833l-1.789-5.671c4.076,0.143,7.586,0.249,10.528,0.249
			c7.884,0,13.803-0.426,17.774-1.258c9.854-2.073,14.76-7.107,14.76-15.046c0-4.802-1.822-8.523-5.492-11.165
			c-2.569-1.859-5.777-2.764-9.712-2.764c-11.197,0-20.824,5.989-28.939,18.006l-6.184-0.585
			C727.632,1247.447,728.607,1235.821,728.943,1222.282z"/>
		<path fill="#404848" d="M889.947,1214.112l-4.678,1.597c-2.18-4.698-4.238-8.331-6.113-10.9l4.586-1.843
			C886.898,1208,888.917,1211.72,889.947,1214.112 M826.009,1223.665l-0.25-4.945c3.862-0.125,8.01-0.229,12.298-0.336
			c4.645-0.105,8.594-0.266,11.875-0.406c-0.428-1.312-1.101-3.119-2.02-5.549c-0.641-1.842-1.154-3.26-1.492-4.27l5.62-0.834
			c0.513,1.561,1.027,3.244,1.646,5.034c0.817,2.162,1.385,3.899,1.773,5.211l3.281-0.195c4.908-0.231,9.762-0.408,14.654-0.584
			c-1.473-2.908-3.225-6.185-5.283-9.89l4.502-1.489l1.17,2.074c2.374,3.987,4.024,7.071,4.946,9.305l-2.747,1.328v3.617
			c-1.595,0.051-4.504,0.105-8.632,0.158c-2.109,0.054-5.529,0.177-10.222,0.354c0.565,1.56,2.088,5.139,4.533,10.703
			c2.498-0.177,6.274-0.371,11.417-0.583c1.024-0.053,4.587-0.266,10.664-0.585l0.161,5.034c-2.39,0.088-5.281,0.212-8.701,0.301
			c-3.279,0.124-7.089,0.264-11.377,0.442c2.411,4.997,5.779,11.093,10.156,18.235l-4.292,2.924
			c-8.682-3.862-16.657-5.847-23.939-5.847c-9.889,0-14.871,2.764-14.871,8.293c0,6.698,7.178,10.03,21.604,10.03
			c6.843,0,14-0.638,21.391-1.895v5.759c-7.744,0.921-14.513,1.382-20.31,1.382c-18.821,0-28.23-5.105-28.23-15.331
			c0-4.34,2.094-7.673,6.201-9.941c3.69-2.02,8.312-3.013,13.913-3.013c5.547,0,12.282,1.274,20.149,3.88
			c-2.128-3.791-4.59-8.524-7.444-14.229l-4.697,0.178l-8.381,0.408l-8.471,0.336l-9.676,0.336l-5.051,0.249l-0.142-5.281
			c2.215-0.053,6.201-0.071,11.857-0.071l9.818-0.266c5.066-0.106,9.319-0.248,12.723-0.407c-0.268-0.621-0.565-1.224-0.851-1.862
			c-1.042-2.339-2.286-5.281-3.651-8.842c-3.931,0.194-8.576,0.407-13.999,0.585
			C833.379,1223.311,829.499,1223.487,826.009,1223.665z"/>
		<path fill="#404848" d="M928.494,1224.976l-0.443-5.174c1.686,0,2.979,0.035,3.793,0.035l6.858-0.107
			c4.04,0,7.122-0.051,9.304-0.193c1.54-3.066,3.137-6.77,4.678-11.147l6.024,0.354c-1.203,2.942-2.799,6.486-4.747,10.527
			c6.112-0.142,14.372-0.46,24.775-0.921l4.942-0.141l0.162,5.262c-2.68,0.054-7.516,0.195-14.569,0.443l-11.908,0.319l-6.098,0.247
			c-2.408,3.9-5.208,8.188-8.453,12.796c4.572-3.724,9.375-5.619,14.389-5.619c6.647,0,10.652,3.35,12.07,9.96
			c8.471-2.375,15.237-3.987,20.254-4.838v5.209c-7.549,1.613-14.125,3.189-19.67,4.768c0.16,3.687,0.213,7.886,0.213,12.636
			c0,1.046,0,2.232-0.053,3.579h-5.371c0.09-2.711,0.107-4.572,0.107-5.6c0-1.489-0.053-4.501-0.16-9.038
			c-12.846,4.519-19.279,9.322-19.279,14.389c0,5.192,5.775,7.798,17.364,7.798c6.63,0,14.462-0.637,23.537-1.931v5.759
			c-8.63,0.922-16.497,1.382-23.713,1.382c-15.241,0-22.841-4.146-22.841-12.477c0-7.193,8.13-13.857,24.436-19.919
			c-0.605-4.571-2.979-6.839-7.051-6.839c-8.473,0-17.565,6.201-27.309,18.626l-4.522-4.202
			c8.116-7.956,14.815-16.763,20.099-26.369c-1.773,0-4.607,0.07-8.526,0.266C933.668,1224.923,930.887,1224.976,928.494,1224.976"
			/>
		<path fill="#404848" d="M1042.307,1270.593l-2.111-6.026c13.148-0.106,22.421-0.85,27.716-2.232
			c12.886-3.368,19.353-10.262,19.353-20.717c0-7.46-3.154-12.743-9.41-15.79c-2.782-1.417-6.877-2.127-12.299-2.127
			c-7.603,0-19.899,2.163-37.003,6.397l-1.259-6.291c6.202-1.063,10.987-1.896,14.34-2.518c11.374-2.019,19.936-3.011,25.677-3.011
			c5.635,0,10.44,1.063,14.408,3.189c7.408,4.076,11.146,10.704,11.146,19.849c0,13.432-7.765,22.275-23.285,26.529
			C1063.943,1269.351,1054.834,1270.272,1042.307,1270.593"/>
		<path fill="#404848" d="M1173.323,1225.119c0.229,2.48,0.442,5.6,0.706,9.286c0.142,2.712,0.303,5.139,0.465,7.266
			c0.318,5.139,0.616,9.287,0.745,12.477c-5.035-1.932-9.27-2.89-12.815-2.89c-4.34,0-7.778,1.01-10.295,3.031
			c-2.905,2.268-4.396,5.388-4.396,9.357c0,8.082,5.388,12.156,16.11,12.156c11.181,0,16.887-4.5,17.028-13.431
			c4.058,2.232,8.187,4.979,12.319,8.256l2.852-5.351c-4.642-3.049-9.784-6.026-15.313-8.86c-0.211-4.414-0.531-10.138-0.956-17.173
			c-0.229-3.562-0.5-7.958-0.834-13.238c3.687,0.85,8.173,2.16,13.508,3.952l0.543-5.653c-9.214-2.765-18.568-4.431-28.102-5.069
			v5.069C1167.334,1224.446,1170.169,1224.711,1173.323,1225.119 M1141.389,1224.587c-3.896,14.691-9.039,27.751-15.54,39.201
			l5.405,3.01c6.555-13.131,11.8-27.291,15.699-42.495c5.583-0.425,10.082-0.816,13.503-1.206l-0.372-5.528
			c-3.312,0.46-7.282,0.886-11.854,1.329c0.92-3.899,1.737-7.584,2.339-11.04l-5.758-0.425c-0.41,2.799-1.118,6.734-2.128,11.802
			c-3.97,0.177-8.932,0.284-14.869,0.337l0.142,5.618C1130.701,1225.083,1135.15,1224.871,1141.389,1224.587z M1175.343,1262.582
			c-0.104,1.878-0.53,3.331-1.239,4.36c-1.667,2.393-4.874,3.615-9.659,3.615c-7.516,0-11.27-2.411-11.27-7.212
			c0-4.768,2.852-7.142,8.507-7.142c3.044,0,7.71,1.24,13.839,3.686C1175.556,1259.888,1175.521,1260.809,1175.343,1262.582z"/>
		<path fill="#404848" d="M1277.669,1222.956l4.624-2.092c3.229,4.573,5.955,8.719,8.102,12.476l-4.84,2.004
			C1283.058,1230.718,1280.438,1226.607,1277.669,1222.956 M1267.056,1226.96l4.536-2.339c2.549,3.722,5.226,8.046,7.941,12.901
			l-4.612,2.268C1272.639,1235.432,1270.015,1231.144,1267.056,1226.96z M1268.737,1208.886l5.334,4.11
			c-7.955,7.408-17.88,15.419-29.701,24.031c-3.633,2.375-5.401,3.846-5.401,4.342c0,0.515,0.563,1.115,1.664,1.861
			c14.137,9.143,26.119,18.678,35.973,28.601l-4.926,4.361c-9.8-10.386-20.024-19.14-30.783-26.282
			c-5.722-3.846-8.61-6.646-8.61-8.454c0-1.914,2.889-4.855,8.807-8.878C1251.389,1225.366,1260.62,1217.498,1268.737,1208.886z"/>
	</g>
	<g>
		<path fill="#404848" d="M324.184,1037.459c0-38.999-10.16-57.188-42.965-57.188s-42.996,18.189-42.996,57.188
			c0,38.934,10.191,57.137,42.996,57.137S324.184,1076.393,324.184,1037.459 M374.897,1037.459
			c0,59.155-33.147,75.737-93.678,75.737c-60.562,0-93.695-16.583-93.695-75.737c0-59.17,33.133-75.752,93.695-75.752
			C341.75,961.707,374.897,978.289,374.897,1037.459z"/>
		<path fill="#404848" d="M89.699,1093.4c18.813-2.687,31.511-7.701,31.511-18.484c0-11.928-26.497-16.418-60.578-25.756
			c-30.299-8.259-60.631-20.466-60.631-46.54c0-26.772,28.94-40.929,83.701-40.929c23.907,0,48.307,3.211,70.902,9.192
			c0,3.408,0,14.108,0,19.466c-20.94-5.98-45.257-8.897-66.297-8.897c-31.249,0-40.751,6.325-40.751,16.223
			c0,12.454,32.706,17.728,64.38,26.756c31.805,9.079,57.269,21.386,57.269,46.292c0,38.932-69.41,42.473-90.762,42.473
			c-26.071,0-52.123-3.198-73.951-8.916c0-3.442,0-14.125,0-19.451C33.152,1093.023,67.48,1096.614,89.699,1093.4"/>
		<path fill="#404848" d="M1005.154,1093.4c18.777-2.687,31.492-7.701,31.492-18.484c0-11.928-26.542-16.418-60.578-25.756
			c-30.331-8.259-60.661-20.466-60.661-46.54c0-26.772,28.952-40.929,83.716-40.929c23.889,0,48.321,3.211,70.885,9.192
			c0,3.408,0,14.108,0,19.466c-20.907-5.98-45.226-8.897-66.298-8.897c-31.281,0-40.75,6.325-40.75,16.223
			c0,12.454,32.705,17.728,64.363,26.756c31.821,9.079,57.284,21.386,57.284,46.292c0,38.932-69.409,42.473-90.762,42.473
			c-26.069,0-52.108-3.198-73.932-8.916c0-3.442,0-14.125,0-19.451C948.557,1093.023,982.898,1096.614,1005.154,1093.4"/>
		<path fill="#404848" d="M558.028,1052.206c0,51.715,20.235,58.072,70.625,58.072h95.316v-20.645h-82.831
			c-30.987,0-33.738-8.881-33.738-30.742v-11.403h106.557v-21.385H607.4v-9.682c0-21.878,2.751-30.775,33.738-30.775h78.996V965
			h-91.481c-50.39,0-70.625,6.375-70.625,58.072V1052.206"/>
		<polyline fill="#404848" points="437.92,1110.278 487.388,1110.278 487.388,986.057 547.557,986.057 547.557,965 377.766,965 
			377.766,986.057 437.92,986.057 437.92,1110.278 		"/>
		<polyline fill="#404848" points="795.823,1110.278 845.292,1110.278 845.292,986.057 905.463,986.057 905.463,965 735.653,965 
			735.653,986.057 795.823,986.057 795.823,1110.278 		"/>
		<path fill="#404848" d="M1245.767,965v95.809c0,23.04-12.849,33.739-40.393,33.739c-27.952,0-40.41-10.404-40.41-33.739V965
			h-49.632v84.256c0,48.274,17.962,63.941,90.254,63.941c71.807,0,89.796-15.667,89.796-63.941V965H1245.767"/>
	</g>
	<g>
		<path fill="#EE7B35" d="M789.442,259.604c-106.287-31.945-207.079-67.532-194.902-130.24
			c14.642-75.321,206.942-55.656,318.125-6.676l1.28-1.349c-11.872-23.613-26.444-37.006-57.039-50.599
			c-71.546-31.776-149.128-54.34-244.185-65.742c-139.579-16.732-245.229,8.568-265.398,75.627
			c-25.806,85.812,96.168,170.477,219.592,213.789c133.507,46.785,274.98,51.881,366.291,100.284
			c49.419,26.208,70.77,81.599,31.913,150.138l2.123,0.343c41.422-32.456,62.639-67.365,61.39-115.801
			C1026.811,359.176,965.625,312.562,789.442,259.604"/>
		<path fill="#2561A7" d="M938.301,442.899c-0.979,35.625-76.91,94.348-167.175,136.544
			c-127.977,59.776-253.324,61.933-279.804,5.098c-26.478-56.774,55.929-151.223,184.005-210.858
			c28.403-13.224,56.671-23.58,83.756-31.136c-19.327-4.015-39.196-8.062-59.265-12.379
			c-51.812,15.516-106.629,38.554-161.172,69.082c-194.395,108.92-311.071,270.124-260.675,360.119
			c50.426,90.061,248.803,74.749,443.266-34.105c19.733-11.061,38.624-22.628,56.667-34.606
			c119.987-79.903,190.283-187.58,162.083-247.824L938.301,442.899"/>
	</g>
</g>
</svg>
