<?xml version="1.0" encoding="UTF-8"?>
<!-- Created with Inkscape (http://www.inkscape.org/) -->
<svg width="44.118mm" height="7.0672mm" version="1.1" viewBox="0 0 44.118 7.0672" xmlns="http://www.w3.org/2000/svg">
<title>Logo of Tokyo Metropolitan Bureau of Transportation (in Japanese)</title>
 <g transform="translate(-108.48 -81.887)">
  <path d="m122.46 85.158h-1.536v-0.41416h1.536zm-1.5356 0.39829h1.536v0.40993h-1.536zm-2.0211 0h1.5416v0.40993h-1.5416zm1.542-0.39829h-1.5416v-0.41416h1.5416zm2.7326-1.2104v-0.39793h-2.2535v-0.48366h-0.47908v0.48366h-2.2348v0.39793h2.2348v0.39829h-2.0207v2.0182h1.6094c-0.47237 0.42827-1.0753 0.79516-1.8277 1.1137v0.43074c0.94615-0.38241 1.681-0.83749 2.2391-1.3854v1.4482h0.47908v-1.4489c0.55774 0.54822 1.2926 1.0033 2.2394 1.3861v-0.43074c-0.75248-0.31856-1.3554-0.68545-1.8277-1.1137h1.6041v-2.0182h-2.0158v-0.39829z" style="fill:#898989"/>
  <g transform="matrix(.35278 0 0 -.35278 128.97 83.55)">
   <path d="m0 0h-6.179v1.37h-1.357v-1.37h-6.454v-1.129h13.99z" style="fill:#898989"/>
  </g>
  <path d="m124.95 84.797h3.1746v0.80292h-3.1746zm3.6537 1.2009v-1.5988h-4.1338v1.5988h1.8464v1.3176c0 0.09913-0.0208 0.20391-0.26071 0.20391h-0.59513v0.48013h0.59513c0.44944 0 0.73943-0.26846 0.73943-0.68404v-1.3176z" style="fill:#898989"/>
  <g transform="matrix(.35278 0 0 -.35278 125.73 86.523)">
   <path d="m0 0h-1.519c-0.955-0.978-2.174-1.944-3.322-2.629v-1.296c1.707 0.903 3.614 2.446 4.841 3.925" style="fill:#898989"/>
  </g>
  <g transform="matrix(.35278 0 0 -.35278 127.81 86.523)">
   <path d="m0 0h-1.52c1.227-1.479 3.136-3.022 4.843-3.925v1.296c-1.151 0.685-2.369 1.651-3.323 2.629" style="fill:#898989"/>
  </g>
  <g transform="matrix(.35278 0 0 -.35278 134.65 85.003)">
   <path d="m0 0c0.15 0.485 1.622 5.193 1.622 5.193h-6.001v-13.316h1.241v12.189h3.225c-0.326-1.045-1.338-4.285-1.338-4.285l0.184-0.234c1.067-1.354 1.629-2.611 1.629-3.596 0-0.327-0.063-0.625-0.189-0.886-0.296-0.61-0.936-0.958-1.757-0.958h-0.719v-1.128h0.719c1.252 0 2.287 0.595 2.772 1.593 0.153 0.319 0.299 0.778 0.299 1.381 0 0.97-0.385 2.317-1.687 4.047" style="fill:#898989"/>
  </g>
  <g transform="matrix(.35278 0 0 -.35278 131.38 84.686)">
   <path d="m0 0v2.148h1.894c-0.501-0.78-1.049-1.49-1.662-2.148zm2.505-5.274h-4.551v1.749h4.551zm-4.551-1.129h4.551v-1.508h-4.551zm5.141 10.724c-0.173-0.363-0.353-0.709-0.535-1.045h-2.56v1.315h-1.36v-1.315h-2.887v-1.128h2.887v-2.148h-3.207v-1.128h3.629c-0.95-0.824-2.039-1.576-3.319-2.308v-1.291c0.293 0.161 0.576 0.322 0.854 0.485v-4.796h7.267v6.641h-4.572c0.501 0.404 0.967 0.827 1.404 1.269h3.088v1.128h-2.072c1.021 1.244 1.87 2.655 2.625 4.321z" style="fill:#898989"/>
  </g>
  <g transform="matrix(.35278 0 0 -.35278 138.76 83.493)">
   <path d="m0 0v1.211h-1.36v-1.211h-6.535v-1.127h14.48v1.127z" style="fill:#898989"/>
  </g>
  <g transform="matrix(.35278 0 0 -.35278 139.89 85.133)">
   <path d="m0 0c0.959-0.924 2.073-1.698 3.367-2.327v1.269c-1.696 0.911-3.043 2.11-4.077 3.639h-1.336c0.366-0.617 0.78-1.185 1.232-1.715-0.498-0.963-1.43-2.414-3.043-3.857-1.616 1.443-2.545 2.894-3.043 3.857 0.451 0.53 0.863 1.098 1.231 1.715h-1.337c-1.033-1.529-2.38-2.728-4.078-3.639v-1.269c1.296 0.629 2.41 1.403 3.369 2.327 0.558-1.003 1.495-2.36 2.982-3.719-1.558-1.202-3.628-2.342-6.362-3.122v-1.17c3.152 0.854 5.497 2.166 7.238 3.546 1.738-1.38 4.086-2.692 7.237-3.546v1.17c-2.735 0.78-4.806 1.92-6.363 3.122 1.486 1.359 2.423 2.716 2.983 3.719" style="fill:#898989"/>
  </g>
  <g transform="matrix(.35278 0 0 -.35278 144.46 87.519)">
   <path d="m0 0c-4.266 0-4.389 3.188-4.389 3.552v3.84h-3.121v-1.129h1.762v-2.062c0-1.729-0.596-3.166-1.773-3.954l-4e-3 -1.43c1.049 0.465 1.894 1.381 2.423 2.534 0.782-1.303 2.35-2.478 5.102-2.478h6.635v1.127z" style="fill:#898989"/>
  </g>
  <g transform="matrix(.35278 0 0 -.35278 142.9 83.528)">
   <path d="m0 0c-1.047 0.514-2.38 1.107-3.108 1.386v-1.478c0.827-0.336 2.16-0.932 3.108-1.433z" style="fill:#898989"/>
  </g>
  <path d="m146.28 85.06h-1.0082v-0.42686h1.0082zm-1.0086 0.39758h1.0082v0.42686h-1.0082zm-1.4266 0h1.0294v0.42686h-1.0294zm1.029-0.39758h-1.0294v-0.42686h1.0294zm0.0744-0.99907-0.30233-0.32456h-0.54434l0.46496 0.49883h-1.1197v2.891h0.39793v-0.84384h1.029v0.84384h0.39758v-0.84384h1.0086v0.2674c0 0.14041-0.0303 0.18732-0.20462 0.18732h-0.31185v0.39793h0.31185c0.38277 0 0.6022-0.21343 0.6022-0.58526v-2.3146h-1.2372c0.38206-0.24836 0.72144-0.56303 0.91793-0.75918l0.33937-0.33972h-3.4078v0.39758h2.4211c-0.22155 0.18944-0.49037 0.39052-0.76271 0.52705" style="fill:#898989"/>
  <path d="m148.44 83.547h3.5638v0.66569h-3.5638zm3.9194 1.5677h-3.9194v-0.50482h4.0425v-1.4612h-4.481v2.479c0 0.57891-0.13688 1.1038-0.43286 1.555v0.69638c0.55633-0.52035 0.87136-1.3818 0.87136-2.2514v-0.115h3.6791v1.5575c0 0.44062-0.13476 0.44062-0.26599 0.44062h-0.57573v0.39829h0.65722c0.44027 0 0.66428-0.28258 0.66428-0.83891v-1.9554z" style="fill:#898989"/>
  <path d="m150.99 86.987h-1.6962v-0.62583h1.6962zm0.43885-1.0238h-2.5728v1.4217h2.5728z" style="fill:#898989"/>
  <g transform="matrix(.35278 0 0 -.35278 115.55 85.423)">
   <path d="m0 0v7e-3c0 5.532-4.484 10.016-10.017 10.016-5.532 0-10.017-4.484-10.017-10.016 0-1e-3 1e-3 -3e-3 1e-3 -5e-3 5.432-0.112 9.804-4.547 9.806-10.007 0.071-1e-3 0.14-5e-3 0.21-5e-3 0.082 0 0.163 4e-3 0.244 6e-3 2e-3 5.447 4.356 9.875 9.773 10.004" style="fill:#00a041"/>
  </g>
 </g>
</svg>
