<?xml version="1.0" encoding="UTF-8"?>
<svg width="531.7" height="261.5" enable-background="new 0 0 175.748 86.453" overflow="visible" inkscape:version="1.0.2 (e86c870879, 2021-01-15)" sodipodi:docname="Tokyo_Metro_combined_logo.svg" version="1.1" viewBox="0 0 531.7 261.5" xml:space="preserve" xmlns="http://www.w3.org/2000/svg" xmlns:cc="http://creativecommons.org/ns#" xmlns:dc="http://purl.org/dc/elements/1.1/" xmlns:inkscape="http://www.inkscape.org/namespaces/inkscape" xmlns:rdf="http://www.w3.org/1999/02/22-rdf-syntax-ns#" xmlns:sodipodi="http://sodipodi.sourceforge.net/DTD/sodipodi-0.dtd"><metadata><rdf:RDF><cc:Work rdf:about=""><dc:format>image/svg+xml</dc:format><dc:type rdf:resource="http://purl.org/dc/dcmitype/StillImage"/><dc:title/></cc:Work></rdf:RDF></metadata><sodipodi:namedview bordercolor="#666666" borderopacity="1" gridtolerance="10" guidetolerance="10" inkscape:current-layer="g1003" inkscape:cx="-142.72745" inkscape:cy="-56.679316" inkscape:pageopacity="0" inkscape:pageshadow="2" inkscape:window-height="1014" inkscape:window-maximized="1" inkscape:window-width="1920" inkscape:window-x="0" inkscape:window-y="0" inkscape:zoom="0.90470446" objecttolerance="10" pagecolor="#ffffff" showgrid="false"/>





















<g transform="matrix(3.025 0 0 3.025 1.807e-5 2.83e-5)"><polygon points="88.2 86.26 88.2 0.174" fill="#fff"/><path d="m86.34 81.96c-5e-3 2.491-2.023 4.497-4.485 4.492l-77.37-0.139c-2.48-3e-3 -4.485-2.017-4.481-4.507l0.138-77.34c5e-3 -2.475 2.018-4.475 4.498-4.47l77.37 0.139c2.462 4e-3 4.474 2.011 4.47 4.486z" fill="#149dd3"/><path d="m43.22 58.67c7.124 0.014 10.06-2.364 10.07-5.957 7e-3 -4.237-4.219-9.417-7.279-12.63 5.773-5.185 13.26-9.018 16.21-6.056 3.403 3.405 0.05 13.49-8.001 24.63l10.61 3.045c8.995-16.01 10.91-31.77 4.703-36.04-4.845-3.31-17.06 3.328-26.27 11.76-9.181-8.462-21.36-15.14-26.22-11.85-6.225 4.243-4.353 20.01 4.585 36.05l10.62-3.006c-8.023-11.17-11.33-21.27-7.919-24.66 2.95-2.951 10.42 0.908 16.19 6.113-3.083 3.204-7.329 8.368-7.336 12.61-6e-3 3.594 2.929 5.981 10.05 5.994zm0.011-5.826c-2.359-5e-3 -4.344-0.605-4.341-2.614 3e-3 -1.866 1.587-4.683 4.359-7.736 2.762 3.064 4.329 5.886 4.327 7.752-4e-3 2.008-1.992 2.602-4.345 2.598z" fill="#fff"/><path d="m175.6 81.96c-5e-3 2.491-2.023 4.497-4.484 4.492l-77.37-0.139c-2.48-4e-3 -4.486-2.018-4.481-4.508l0.138-77.34c4e-3 -2.475 2.017-4.475 4.496-4.47l77.37 0.139c2.463 4e-3 4.475 2.011 4.47 4.486z" fill="#0e3051" style="fill:#00467e"/><g fill="#fff"><path d="m103.8 30.31v-0.845l-5.631-0.01 3e-3 -1.297 5.63 0.01 2e-3 -0.937 1.843 3e-3 -2e-3 0.937 5.634 0.01-2e-3 1.298-5.634-0.01v0.845l4.226 0.017c0.277 1e-3 0.468 0.188 0.467 0.474l-7e-3 4.596c-2e-3 0.277-0.191 0.476-0.469 0.475l-1.814-3e-3c0.779 0.966 2.191 2.069 3.228 2.339l-3e-3 1.447c-2.396-0.452-4.725-2.17-5.639-3.94l-7e-3 4.119-1.843-4e-3 8e-3 -4.118c-0.916 1.767-3.233 3.477-5.638 3.919l3e-3 -1.447c1.034-0.266 2.447-1.354 3.223-2.321l-1.793-1e-3c-0.276-1e-3 -0.473-0.198-0.473-0.469l9e-3 -4.612c0-0.276 0.198-0.472 0.474-0.472zm4.777 4.319 1e-3 -0.995-2.943-6e-3 -2e-3 0.996zm-4.782-2.162 2e-3 -0.906-2.937-5e-3 -2e-3 0.906zm-5e-3 2.153 3e-3 -0.995-2.937-6e-3 -2e-3 0.997zm4.791-2.143 2e-3 -0.906-2.943-6e-3 -2e-3 0.906z"/><path d="m146.1 33.36c2.402 0.448 5.418 1.093 7.511 1.654l3e-3 -1.705c-1.67-0.541-4.986-1.408-7.521-1.935l0.013-3.675-2.258-4e-3 -0.021 11.82 2.263 4e-3z"/><path d="m155.7 38.42c-1e-3 0.381 0.298 0.71 0.707 0.71l9.858 0.018c0.408 0 0.712-0.327 0.712-0.708l0.019-9.506c0-0.382-0.303-0.709-0.711-0.709l-9.857-0.018c-0.409-1e-3 -0.711 0.324-0.712 0.707zm2.096-1.009 0.014-7.501 7.095 0.013-0.014 7.5z"/><polygon points="119.3 27.26 119.3 28.19 113.7 28.18 113.7 29.6 126.8 29.62 126.8 28.21 121.2 28.2 121.2 27.26"/><path d="m116 36.2c-0.433 0.867-1.434 1.761-2.306 2.016l-4e-3 1.447c2.327-0.289 3.97-2.026 4.423-3.458z"/><path d="m124.5 36.21-2.108-3e-3c0.439 1.434 2.084 3.177 4.402 3.473l4e-3 -1.445c-0.851-0.24-1.865-1.137-2.298-2.025z"/><path d="m125.1 35.3c0.272 1e-3 0.475-0.186 0.475-0.472l8e-3 -3.698c0-0.264-0.202-0.471-0.475-0.471l-9.74-0.018c-0.283 0-0.471 0.189-0.471 0.47l-8e-3 3.695c0 0.274 0.187 0.466 0.471 0.466l3.961 0.018-6e-3 3.027-1.337-2e-3 -3e-3 1.5 1.448 2e-3c0.973 2e-3 1.732 4e-3 1.734-1.479l5e-3 -3.039zm-8.342-1.365-1e-3 -1.946 6.96 0.012-5e-3 1.946z"/><path d="m136.7 34.88c1.363 0.739 2.555 1.406 3.452 1.902l4e-3 -2.189c-0.685-0.385-1.526-0.826-2.47-1.324 0.909-1.714 1.508-3.619 1.785-5.594l-2.384-0.01c-0.248 1.689-0.713 3.232-1.372 4.591-1.965-0.975-4.126-1.989-5.916-2.711l-2e-3 1.747c1.569 0.655 3.337 1.646 5.026 2.539-1.273 1.993-3.472 3.62-5.774 4.17l-2e-3 1.557c3.25-0.333 5.813-2.078 7.653-4.678z"/><polygon points="100.6 49.21 98.18 49.21 98.18 47.62 104.7 47.62 104.7 49.21 102.4 49.21 102.4 56.75 100.6 56.75"/><path d="m108.4 53.4c0 0.691-0.039 1.279-0.387 1.622-0.196 0.2-0.446 0.299-0.783 0.299-0.336 0-0.579-0.099-0.77-0.299-0.35-0.343-0.384-0.931-0.384-1.622 0-0.692 0.034-1.269 0.384-1.616 0.19-0.193 0.434-0.298 0.77-0.298 0.337 0 0.587 0.104 0.783 0.298 0.348 0.348 0.387 0.924 0.387 1.616zm1.662 0c0-1.204-0.151-1.96-0.754-2.588-0.412-0.439-1.092-0.818-2.077-0.818-0.989 0-1.653 0.379-2.067 0.818-0.603 0.628-0.752 1.384-0.752 2.588 0 1.22 0.149 1.975 0.752 2.602 0.414 0.44 1.078 0.825 2.067 0.825 0.985 0 1.665-0.385 2.077-0.825 0.602-0.627 0.754-1.382 0.754-2.602z"/><polygon points="113.2 56.75 111.5 56.75 111.5 47.62 113.2 47.62 113.2 52.8 115.4 50.07 117.4 50.07 115 52.76 117.6 56.75 115.5 56.75 113.9 53.96 113.2 54.76"/><path d="m121.2 57.82c-0.145 0.371-0.297 0.658-0.508 0.862-0.379 0.386-0.881 0.511-1.432 0.511h-0.649v-1.498h0.387c0.474 0 0.665-0.113 0.826-0.606l0.28-0.818-2.279-6.204h1.76l1.384 4.125 1.335-4.125h1.756z"/><path d="m128.6 53.4c0 0.691-0.031 1.279-0.383 1.622-0.191 0.2-0.45 0.299-0.782 0.299-0.337 0-0.579-0.099-0.767-0.299-0.344-0.343-0.391-0.931-0.391-1.622 0-0.692 0.047-1.269 0.391-1.616 0.188-0.193 0.43-0.298 0.767-0.298 0.332 0 0.591 0.104 0.782 0.298 0.352 0.348 0.383 0.924 0.383 1.616zm1.669 0c0-1.204-0.152-1.96-0.757-2.588-0.412-0.439-1.092-0.818-2.077-0.818s-1.653 0.379-2.061 0.818c-0.606 0.628-0.762 1.384-0.762 2.588 0 1.22 0.155 1.975 0.762 2.602 0.407 0.44 1.075 0.825 2.061 0.825s1.665-0.385 2.077-0.825c0.605-0.627 0.757-1.382 0.757-2.602z"/><polygon points="137.9 54.89 136.3 51.22 136.3 56.75 134.5 56.75 134.5 47.62 136.2 47.62 138.5 52.56 140.7 47.62 142.5 47.62 142.5 56.75 140.7 56.75 140.7 51.22 139.1 54.89"/><path d="m148.3 52.79h-2.53c8e-3 -0.297 0.042-0.473 0.152-0.717 0.179-0.402 0.547-0.691 1.11-0.691s0.931 0.289 1.118 0.691c0.102 0.244 0.139 0.42 0.15 0.717zm1.645 1.14v-0.745c0-1.832-1.051-3.187-2.912-3.187-1.732 0-2.908 1.229-2.908 3.406 0 2.701 1.517 3.427 3.093 3.427 1.199 0 1.853-0.373 2.532-1.06l-1.012-0.984c-0.423 0.428-0.786 0.633-1.509 0.633-0.939 0-1.459-0.633-1.459-1.49z"/><path d="m153.5 56.75c-1.365 0-1.943-0.966-1.943-1.914v-3.307h-0.703v-1.267h0.703v-1.972h1.667v1.972h1.18v1.267h-1.18v3.207c0 0.382 0.182 0.604 0.577 0.604h0.603v1.409h-0.904z"/><path d="m159.5 51.89c-0.257-0.259-0.472-0.405-0.887-0.405-0.512 0-1.071 0.385-1.071 1.237v4.024h-1.67v-6.68h1.627v0.642c0.32-0.384 0.967-0.716 1.689-0.716 0.642 0 1.106 0.164 1.564 0.617z"/><path d="m165 53.4c0 0.691-0.035 1.279-0.384 1.622-0.187 0.2-0.445 0.299-0.78 0.299-0.337 0-0.572-0.099-0.779-0.299-0.34-0.343-0.371-0.931-0.371-1.622 0-0.692 0.031-1.269 0.371-1.616 0.207-0.193 0.442-0.298 0.779-0.298 0.335 0 0.594 0.104 0.78 0.298 0.349 0.348 0.384 0.924 0.384 1.616zm1.662 0c0-1.204-0.145-1.96-0.751-2.588-0.403-0.439-1.091-0.818-2.075-0.818-0.991 0-1.65 0.379-2.062 0.818-0.606 0.628-0.759 1.384-0.759 2.588 0 1.22 0.152 1.975 0.759 2.602 0.411 0.44 1.07 0.825 2.062 0.825 0.984 0 1.672-0.385 2.075-0.825 0.607-0.627 0.751-1.382 0.751-2.602z"/></g></g>
</svg>
